:SAMPLES-PER-SECOND 30
:FULLY-SPECIFIED
:DEGREES
424
root  -3.96514 33.1433 36.6715 93.7284 6.65946 87.6277
Spine  4.52796 16.8798 -11.6012
Spine1  3.70673 -11.2335 1.41148
Neck  3.97569e-016 0 -2.38542e-015
Head  -5.51251 -3.19898 25.3778
R_Clavicle  0.412052 -12.1756 2.03504
R_UpperArm  -3.0793 6.4677 9.36437
R_Forearm  26.946 -19.3424 17.0381
R_Hand  -0.566435 8.81673 -15.8376
L_Clavicle  -0.596715 18.6996 -2.6117
L_UpperArm  -10.8034 22.9127 35.1262
L_Forearm  -5.33481 27.589 35.7311
L_Hand  -0.163798 1.46526 -2.57502
L_Thigh  -0.0546284 2.52668 1.86654
L_Calf  0.455585 -8.44664 46.1271
L_Foot  0.390708 3.97913 -2.55047
L_Toe0  0.505156 0.034446 -6.1361
R_Thigh  1.27868 5.30704 -31.2256
R_Calf  2.03896 12.4317 41.9083
R_Foot  -1.37028 -3.38915 2.67257
R_Toe0  0.895708 -0.314978 -14.6019
425
root  -3.89074 32.7718 37.7465 95.2001 6.33293 87.4979
Spine  4.8368 17.4498 -11.0338
Spine1  3.89497 -12.7275 1.08201
Neck  3.97569e-016 0 -2.38542e-015
Head  -6.77719 -3.1286 24.5008
R_Clavicle  0.395254 -11.0188 1.8834
R_UpperArm  -7.9512 7.48536 8.4421
R_Forearm  29.1846 -22.9879 19.7913
R_Hand  -0.493654 8.4541 -15.1738
L_Clavicle  -0.58875 18.7154 -2.25696
L_UpperArm  -11.0058 21.6474 33.9569
L_Forearm  -7.20625 26.7118 35.0263
L_Hand  -0.179989 1.42294 -2.85426
L_Thigh  -0.469102 1.33176 4.23274
L_Calf  -0.244245 -8.25915 42.9675
L_Foot  0.315882 7.38016 -5.5192
L_Toe0  0.505156 0.034446 -6.1361
R_Thigh  1.57343 5.69069 -33.0659
R_Calf  2.96229 12.4639 41.5662
R_Foot  -1.52334 -2.57851 5.51665
R_Toe0  0.980981 -0.311808 -15.1458
426
root  -3.74622 32.3791 38.8413 96.8798 6.68308 88.2227
Spine  5.1623 16.5941 -9.59978
Spine1  3.98438 -13.3994 1.55592
Neck  3.97569e-016 0 -2.38542e-015
Head  -8.24474 -2.85922 22.3867
R_Clavicle  0.362099 -11.0634 1.5562
R_UpperArm  -3.28859 8.26076 9.0816
R_Forearm  24.0896 -28.5541 19.8213
R_Hand  -0.339361 8.16434 -13.8796
L_Clavicle  -0.59194 19.0861 -1.70748
L_UpperArm  -10.6503 18.5861 30.5541
L_Forearm  -8.90789 26.9128 35.1512
L_Hand  -0.210997 0.94266 -3.6207
L_Thigh  -1.65309 -0.80447 5.43186
L_Calf  0.72016 -6.27195 37.5047
L_Foot  -0.617426 12.9591 -12.2942
L_Toe0  0.505156 0.034446 -6.1361
R_Thigh  2.28341 5.45184 -34.529
R_Calf  3.20576 11.5227 38.622
R_Foot  -1.57312 -1.67508 8.18769
R_Toe0  1.62973 -0.363588 -14.2652
427
root  -3.53655 32.0503 39.9909 98.7688 7.43836 89.938
Spine  5.50054 14.3096 -7.70787
Spine1  4.03703 -13.4483 2.9235
Neck  3.97569e-016 0 -2.38542e-015
Head  -10.2667 -2.08503 19.533
R_Clavicle  0.337113 -12.3107 1.20625
R_UpperArm  9.14236 8.10365 11.4279
R_Forearm  13.9081 -34.8646 19.3859
R_Hand  -0.257736 8.27887 -13.3208
L_Clavicle  -0.600951 19.5764 -1.31062
L_UpperArm  -9.81084 14.3864 25.6549
L_Forearm  -10.0594 27.5807 35.6251
L_Hand  -0.219973 -0.101402 -4.56054
L_Thigh  -1.768 -3.54462 5.77403
L_Calf  2.31625 -4.03341 31.0309
L_Foot  -0.810057 15.9334 -14.1319
L_Toe0  0.505156 0.034446 -6.1361
R_Thigh  3.07248 4.33117 -34.9125
R_Calf  2.36469 9.7936 32.3894
R_Foot  -0.482514 1.34147 8.28397
R_Toe0  0.671719 -0.265679 -8.3697
428
root  -3.27759 31.8041 41.1268 100.766 7.66145 92.6053
Spine  5.51261 10.5173 -6.2933
Spine1  3.98602 -12.9286 4.64452
Neck  3.97569e-016 0 -2.38542e-015
Head  -12.0014 -1.15297 17.0078
R_Clavicle  0.319875 -13.6342 0.845425
R_UpperArm  21.1213 6.28268 14.3364
R_Forearm  5.61771 -39.7529 20.6816
R_Hand  -0.343158 8.73571 -14.1702
L_Clavicle  -0.602764 19.4476 -1.52741
L_UpperArm  -9.09283 11.0621 21.0352
L_Forearm  -10.8524 27.2993 35.357
L_Hand  -0.19373 -1.26368 -5.2025
L_Thigh  -1.33927 -6.40093 5.5591
L_Calf  3.0763 -3.34917 25.1552
L_Foot  0.586135 14.5953 -9.11268
L_Toe0  0.505156 0.034446 -6.1361
R_Thigh  4.93223 2.0027 -32.8801
R_Calf  0.515952 6.95952 22.1959
R_Foot  1.38213 5.89951 5.21938
R_Toe0  -0.920627 0.222498 -0.441497
429
root  -2.98323 31.5615 42.2111 102.445 7.25012 95.2947
Spine  5.04188 6.14848 -5.82454
Spine1  3.66451 -11.6415 6.27991
Neck  3.97569e-016 0 -2.38542e-015
Head  -12.2718 -0.655948 15.3227
R_Clavicle  0.303556 -14.3721 0.499042
R_UpperArm  28.8123 3.40586 16.6425
R_Forearm  0.899611 -42.8993 22.813
R_Hand  -0.429898 8.87423 -14.8613
L_Clavicle  -0.581716 18.6212 -2.15995
L_UpperArm  -9.6091 9.43034 17.7802
L_Forearm  -11.412 25.4702 33.421
L_Hand  -0.172447 -1.80524 -5.34001
L_Thigh  -2.78299 -8.75412 5.03991
L_Calf  4.78399 -2.78873 20.7999
L_Foot  1.79853 11.4204 -3.3295
L_Toe0  0.505156 0.034446 -6.1361
R_Thigh  7.35342 -1.05698 -28.4068
R_Calf  -0.811519 3.02692 9.39639
R_Foot  2.2964 7.32308 -2.51093
R_Toe0  1.67213 -0.478482 4.54442
430
root  -2.67101 31.2963 43.2898 103.936 7.0424 97.4688
Spine  4.09536 2.14858 -6.03524
Spine1  2.92974 -9.48309 8.35499
Neck  3.97569e-016 0 -2.38542e-015
Head  -11.0493 -0.719227 13.7726
R_Clavicle  0.300258 -15.0327 0.300082
R_UpperArm  31.861 0.891863 18.4293
R_Forearm  -1.60671 -44.3708 24.3367
R_Hand  -0.333421 8.7527 -14.104
L_Clavicle  -0.560402 18.0504 -2.54018
L_UpperArm  -11.4956 7.83439 15.3478
L_Forearm  -11.428 23.3226 29.859
L_Hand  -0.187155 -1.57502 -5.43539
L_Thigh  -3.6165 -10.6996 4.05011
L_Calf  5.96857 -2.31189 17.2857
L_Foot  2.46186 10.1712 -0.104235
L_Toe0  0.505156 0.034446 -6.1361
R_Thigh  9.25362 -4.1411 -23.2213
R_Calf  -1.01351 -0.878359 -2.7516
R_Foot  2.155 4.02703 -13.0404
R_Toe0  7.79863 -2.23735 -1.02936
431
root  -2.36689 31.14 44.4207 105.473 7.49444 98.9146
Spine  3.0083 -0.703236 -6.63119
Spine1  2.04052 -6.86073 11.1713
Neck  3.97569e-016 0 -2.38542e-015
Head  -9.50451 -0.941746 11.6942
R_Clavicle  0.319712 -16.218 0.292473
R_UpperArm  32.4441 -0.841137 20.5589
R_Forearm  -3.07979 -44.5473 24.718
R_Hand  -0.255024 8.92015 -13.6119
L_Clavicle  -0.575474 18.4142 -2.33413
L_UpperArm  -10.5572 4.48392 12.4624
L_Forearm  -12.3264 21.416 26.9267
L_Hand  -0.237348 -1.06909 -6.05196
L_Thigh  -3.05893 -12.0881 2.19873
L_Calf  6.43631 -1.92706 14.4842
L_Foot  3.23652 10.4861 2.27675
L_Toe0  0.505156 0.034446 -6.1361
R_Thigh  11.1238 -6.65301 -18.9714
R_Calf  -0.00765056 -3.82542 -11.9869
R_Foot  2.1067 0.844735 -18.2561
R_Toe0  7.45579 -1.16048 -12.9174
432
root  -2.0922 31.219 45.6167 106.426 8.24073 99.3887
Spine  2.25568 -1.98302 -7.62734
Spine1  1.49835 -4.54301 13.7148
Neck  3.97569e-016 0 -2.38542e-015
Head  -8.41005 -1.08314 9.8357
R_Clavicle  0.347662 -17.741 0.346747
R_UpperArm  32.6888 -2.37882 23.4205
R_Forearm  -3.82646 -44.6158 24.9173
R_Hand  -0.476708 9.42432 -15.4055
L_Clavicle  -0.600763 19.2151 -1.81142
L_UpperArm  -7.02574 0.209571 8.78211
L_Forearm  -12.5646 20.5784 25.6883
L_Hand  -0.283943 -0.749128 -6.71628
L_Thigh  -2.152 -12.2725 -0.514734
L_Calf  6.58091 -1.73702 13.1093
L_Foot  4.18349 10.6524 5.30026
L_Toe0  0.505156 0.034446 -6.1361
R_Thigh  12.9651 -8.24312 -15.4668
R_Calf  1.87768 -5.5898 -17.683
R_Foot  1.81839 0.0192391 -16.3117
R_Toe0  -2.58427 -0.189692 -17.7881
433
root  -1.8499 31.466 46.8231 105.897 8.75952 99.2105
Spine  1.94263 -2.4024 -8.88759
Spine1  1.34885 -2.88766 14.6237
Neck  3.97569e-016 0 -2.38542e-015
Head  -7.15643 -1.32115 9.53011
R_Clavicle  0.370083 -19.0845 0.352335
R_UpperArm  33.5488 -4.01401 26.6003
R_Forearm  -4.83083 -45.7566 26.2233
R_Hand  -0.844388 9.84422 -18.0622
L_Clavicle  -0.596105 19.4149 -1.37055
L_UpperArm  -3.68792 -2.50538 5.51894
L_Forearm  -11.0792 20.4985 25.5726
L_Hand  -0.268859 -0.619457 -6.18855
L_Thigh  -2.02084 -11.4158 -3.63479
L_Calf  6.53565 -1.78552 13.5288
L_Foot  4.78846 10.2529 7.69114
L_Toe0  0.505156 0.034446 -6.1361
R_Thigh  13.5029 -8.96542 -11.5539
R_Calf  3.04193 -6.21511 -19.7598
R_Foot  1.54985 0.803265 -12.6282
R_Toe0  -1.78853 -0.272788 -17.3235
434
root  -1.6198 31.8233 48.0321 104.306 8.95417 98.8393
Spine  1.5167 -2.95169 -10.0744
Spine1  1.12206 -1.32655 13.5467
Neck  3.97569e-016 0 -2.38542e-015
Head  -4.66098 -1.73626 11.077
R_Clavicle  0.383907 -19.9612 0.314293
R_UpperArm  34.828 -5.69798 29.5639
R_Forearm  -6.89342 -47.376 28.8512
R_Hand  -0.884539 10.0639 -18.3738
L_Clavicle  -0.554399 18.576 -1.10151
L_UpperArm  -2.92349 -2.7385 4.15334
L_Forearm  -8.68442 20.4408 25.4892
L_Hand  -0.197625 -0.377171 -4.32886
L_Thigh  -2.54081 -10.3252 -7.02466
L_Calf  6.32296 -2.05479 15.6162
L_Foot  4.9679 10.1742 8.36593
L_Toe0  0.505156 0.034446 -6.1361
R_Thigh  12.6742 -8.92637 -7.18503
R_Calf  2.85167 -5.73282 -18.1799
R_Foot  1.47208 0.727191 -11.9672
R_Toe0  -1.78853 -0.272788 -17.3235
